<svg width="34" height="32" viewBox="0 0 34 32" fill="none" xmlns="http://www.w3.org/2000/svg">
<path d="M20.2 26.8246C26.2336 26.8246 29.2512 26.8246 31.1248 24.9494C33 23.0758 33 20.0582 33 14.0246C33 7.99098 33 4.97338 31.1248 3.09978C29.2512 1.22458 26.2336 1.22458 20.2 1.22458H13.8C7.7664 1.22458 4.7488 1.22458 2.8752 3.09978C1 4.97338 1 7.99098 1 14.0246C1 20.0582 1 23.0758 2.8752 24.9494C3.92 25.9958 5.32 26.4582 7.4 26.6614" stroke="#8AF0A7" stroke-width="2" stroke-linecap="round" stroke-linejoin="round"/>
<path d="M20.2003 26.8246C18.2227 26.8246 16.0435 27.6246 14.0547 28.6566C10.8579 30.3158 9.25949 31.1462 8.47229 30.6166C7.68509 30.0886 7.83389 28.4486 8.13309 25.1702L8.20029 24.4246" stroke="#8AF0A7" stroke-width="2" stroke-linecap="round"/>
</svg>
