<svg width="45" height="46" viewBox="0 0 45 46" fill="none" xmlns="http://www.w3.org/2000/svg">
<path d="M6.64773 4.01563H38.3523C40.0503 4.01551 41.684 4.68547 42.9182 5.88806C44.1524 7.09065 44.8936 8.73471 44.9898 10.483L45 10.8711V35.1289C45.0001 36.88 44.3505 38.5647 43.1843 39.8375C42.0182 41.1103 40.4239 41.8747 38.7286 41.9738L38.3523 41.9844H6.64773C4.94972 41.9845 3.31603 41.3145 2.0818 40.1119C0.847569 38.9093 0.106361 37.2653 0.0102275 35.517L1.42674e-08 35.1289V10.8711C-0.000111164 9.12002 0.649542 7.43528 1.81569 6.16248C2.98184 4.88968 4.57608 4.12531 6.27136 4.02617L6.64773 4.01563H38.3523H6.64773ZM41.9318 16.4715L23.2077 26.5121C23.0264 26.6093 22.828 26.6681 22.6242 26.6852C22.4205 26.7022 22.2155 26.6771 22.0214 26.6112L21.7923 26.5121L3.06818 16.4715V35.1289C3.06822 36.0553 3.40603 36.9479 4.01457 37.6293C4.62311 38.3108 5.45789 38.7314 6.35318 38.8077L6.64773 38.8203H38.3523C39.2509 38.8202 40.1167 38.4716 40.7776 37.8436C41.4385 37.2156 41.8461 36.3542 41.9195 35.4305L41.9318 35.1289V16.4715V16.4715ZM38.3523 7.17969H6.64773C5.74938 7.17972 4.8839 7.5281 4.22306 8.15565C3.56223 8.78321 3.15438 9.64407 3.08045 10.5673L3.06818 10.8711V12.9045L22.5 23.3248L41.9318 12.9045V10.8711C41.9317 9.94434 41.5936 9.05153 40.9847 8.36999C40.3757 7.68846 39.5404 7.26807 38.6448 7.19234L38.3523 7.17969Z" fill="#38C961"/>
</svg>
