<svg width="46" height="46" viewBox="0 0 46 46" fill="none" xmlns="http://www.w3.org/2000/svg">
<g clip-path="url(#clip0_67_224)">
<path d="M7.14773 4.01563H38.8523C40.5503 4.01551 42.184 4.68547 43.4182 5.88806C44.6524 7.09065 45.3936 8.73471 45.4898 10.483L45.5 10.8711V35.1289C45.5001 36.88 44.8505 38.5647 43.6843 39.8375C42.5182 41.1103 40.9239 41.8747 39.2286 41.9738L38.8523 41.9844H7.14773C5.44972 41.9845 3.81603 41.3145 2.5818 40.1119C1.34757 38.9093 0.606361 37.2653 0.510228 35.517L0.5 35.1289V10.8711C0.499889 9.12002 1.14954 7.43528 2.31569 6.16248C3.48184 4.88968 5.07608 4.12531 6.77136 4.02617L7.14773 4.01563H38.8523H7.14773ZM42.4318 16.4715L23.7077 26.5121C23.5264 26.6093 23.328 26.6681 23.1242 26.6852C22.9205 26.7022 22.7155 26.6771 22.5214 26.6112L22.2923 26.5121L3.56818 16.4715V35.1289C3.56822 36.0553 3.90603 36.9479 4.51457 37.6293C5.12311 38.3108 5.95789 38.7314 6.85318 38.8077L7.14773 38.8203H38.8523C39.7509 38.8202 40.6167 38.4716 41.2776 37.8436C41.9385 37.2156 42.3461 36.3542 42.4195 35.4305L42.4318 35.1289V16.4715ZM38.8523 7.17969H7.14773C6.24938 7.17972 5.3839 7.5281 4.72306 8.15565C4.06223 8.78321 3.65438 9.64407 3.58045 10.5673L3.56818 10.8711V12.9045L23 23.3248L42.4318 12.9045V10.8711C42.4317 9.94434 42.0936 9.05153 41.4847 8.36999C40.8757 7.68846 40.0404 7.26807 39.1448 7.19234L38.8523 7.17969Z" fill="white"/>
</g>
<defs>
<clipPath id="clip0_67_224">
<rect width="45" height="45" fill="white" transform="translate(0.5 0.5)"/>
</clipPath>
</defs>
</svg>
