<svg width="32" height="33" viewBox="0 0 32 33" fill="none" xmlns="http://www.w3.org/2000/svg">
<path d="M12.6044 23.1576L15.1111 25.6643L24 16.7754L15.1111 7.88653L12.6044 10.3932L17.1911 14.9976H0V18.5532H17.1911L12.6044 23.1576ZM28.4444 0.775421H3.55556C2.61256 0.775421 1.70819 1.15002 1.0414 1.81682C0.374602 2.48362 0 3.38798 0 4.33098V11.4421H3.55556V4.33098H28.4444V29.2199H3.55556V22.1088H0V29.2199C0 30.1629 0.374602 31.0672 1.0414 31.734C1.70819 32.4008 2.61256 32.7754 3.55556 32.7754H28.4444C30.4 32.7754 32 31.1754 32 29.2199V4.33098C32 2.37542 30.4 0.775421 28.4444 0.775421Z" fill="#8AF0A7"/>
</svg>
