<svg width="45" height="46" viewBox="0 0 45 46" fill="none" xmlns="http://www.w3.org/2000/svg">
<g clip-path="url(#clip0_67_196)">
<path d="M18.4958 34.4013L16.0967 32.0471L44.4375 3.68386L41.2761 0.5L12.8904 28.8632L10.5362 26.4417C8.78728 24.7152 5.93974 24.7152 4.19086 26.4417L-0.5625 31.2399L1.02943 32.8094L5.78279 28.0561L7.37472 29.648L2.59894 34.4013L4.19086 35.9933L8.94423 31.2399L10.5362 32.8094L5.78279 37.5628L7.37472 39.1547L12.1281 34.4013L13.6976 35.9933L8.94423 40.7466L10.5362 42.3386L15.2895 37.5628L16.8814 39.1547L12.1281 43.9081L13.6976 45.5L18.4958 40.7466C20.2223 38.9978 20.2223 36.1502 18.4958 34.4013Z" fill="white"/>
</g>
<defs>
<clipPath id="clip0_67_196">
<rect width="45" height="45" fill="white" transform="translate(0 0.5)"/>
</clipPath>
</defs>
</svg>
