<svg width="30" height="30" viewBox="0 0 30 30" fill="none" xmlns="http://www.w3.org/2000/svg">
<path d="M15 20C17.7614 20 20 17.7614 20 15C20 12.2386 17.7614 10 15 10C12.2386 10 10 12.2386 10 15C10 17.7614 12.2386 20 15 20Z" fill="#8AF0A7"/>
<path d="M16.5 3.1035V0H13.5V3.1035C10.8604 3.44052 8.40745 4.64426 6.52586 6.52586C4.64426 8.40745 3.44052 10.8604 3.1035 13.5H0V16.5H3.1035C3.44003 19.1397 4.6436 21.593 6.52529 23.4747C8.40698 25.3564 10.8603 26.56 13.5 26.8965V30H16.5V26.8965C19.1398 26.5602 21.5932 25.3567 23.475 23.475C25.3567 21.5932 26.5602 19.1398 26.8965 16.5H30V13.5H26.8965C26.56 10.8603 25.3564 8.40698 23.4747 6.52529C21.593 4.6436 19.1397 3.44003 16.5 3.1035ZM15 24C10.0365 24 6 19.9635 6 15C6 10.0365 10.0365 6 15 6C19.9635 6 24 10.0365 24 15C24 19.9635 19.9635 24 15 24Z" fill="#8AF0A7"/>
</svg>
