<svg width="26" height="32" viewBox="0 0 26 32" fill="none" xmlns="http://www.w3.org/2000/svg">
<path d="M17.5 26.5C17.5 27.6935 17.0259 28.8381 16.182 29.682C15.3381 30.5259 14.1935 31 13 31C11.8066 31 10.662 30.5259 9.81806 29.682C8.97415 28.8381 8.50004 27.6935 8.50004 26.5M14.0815 5.5045L11.8825 5.5C6.86654 5.488 2.51204 9.5635 2.47754 14.5V20.185C2.47754 21.37 2.32754 22.5265 1.68104 23.512L1.25054 24.169C0.595043 25.165 1.30004 26.5 2.47754 26.5H23.5225C24.7 26.5 25.4035 25.165 24.7495 24.169L24.319 23.512C23.674 22.5265 23.5225 21.3685 23.5225 20.1835V14.5015C23.4625 9.5635 19.0975 5.5165 14.0815 5.5045V5.5045Z" stroke="#DE7BE0" stroke-width="2" stroke-linecap="round" stroke-linejoin="round"/>
<path d="M13 1C13.7956 1 14.5587 1.31607 15.1213 1.87868C15.6839 2.44129 16 3.20435 16 4V5.5H10V4C10 3.20435 10.3161 2.44129 10.8787 1.87868C11.4413 1.31607 12.2044 1 13 1Z" stroke="#DE7BE0" stroke-width="2" stroke-linecap="round" stroke-linejoin="round"/>
</svg>
