<svg width="34" height="39" viewBox="0 0 34 39" fill="none" xmlns="http://www.w3.org/2000/svg">
<path d="M2.46626 15.3117C2.53912 14.4038 2.95129 13.5566 3.62068 12.9389C4.29007 12.3212 5.16757 11.9784 6.07841 11.9785H27.9216C28.8324 11.9784 29.7099 12.3212 30.3793 12.9389C31.0487 13.5566 31.4609 14.4038 31.5337 15.3117L32.9884 33.4268C33.0284 33.9253 32.9648 34.4267 32.8015 34.8994C32.6382 35.3722 32.3788 35.806 32.0397 36.1735C31.7006 36.5411 31.289 36.8344 30.8309 37.0351C30.3728 37.2358 29.8782 37.3395 29.378 37.3397H4.62195C4.12183 37.3395 3.62716 37.2358 3.16908 37.0351C2.711 36.8344 2.29944 36.5411 1.96029 36.1735C1.62115 35.806 1.36178 35.3722 1.19851 34.8994C1.03524 34.4267 0.971603 33.9253 1.01161 33.4268L2.46626 15.3117V15.3117Z" stroke="#8AF0A7" stroke-width="2" stroke-linecap="round" stroke-linejoin="round"/>
<path d="M24.2465 17.4131V8.35552C24.2465 6.43375 23.4831 4.59069 22.1242 3.2318C20.7653 1.8729 18.9222 1.10948 17.0004 1.10948C15.0787 1.10948 13.2356 1.8729 11.8767 3.2318C10.5178 4.59069 9.75439 6.43375 9.75439 8.35552V17.4131" stroke="#8AF0A7" stroke-width="2" stroke-linecap="round" stroke-linejoin="round"/>
</svg>
