<svg width="45" height="44" viewBox="0 0 45 44" fill="none" xmlns="http://www.w3.org/2000/svg">
<path d="M30.0407 0.366941C26.9757 0.366941 24.1189 1.52737 21.7644 3.72537C19.0903 6.22372 17.8665 9.29545 18.2245 12.5788C18.493 15.0157 19.684 17.4731 21.5927 19.6711L8.34995 32.0434L5.95164 29.8027C4.78262 28.7054 3.8127 29.615 2.64185 30.7106L1.50023 31.83C0.327563 32.9205 -0.640531 33.7755 0.530315 34.8694L2.92498 37.1117L1.04359 38.8694C0.764966 39.128 0.543841 39.4355 0.392945 39.7742C0.24205 40.1129 0.164366 40.4761 0.164366 40.843C0.164366 41.2099 0.24205 41.5732 0.392945 41.9119C0.543841 42.2506 0.764966 42.5581 1.04359 42.8166C2.21261 43.9071 4.09582 43.9071 5.26849 42.8166L26.046 23.405C28.2963 24.7224 30.7403 25.4306 33.1222 25.4306C36.1854 25.4306 39.0477 24.2702 41.4003 22.0705C44.0763 19.5738 45.2983 16.5021 44.9384 13.2187C44.6169 10.2648 42.9383 7.292 40.2587 4.79195C37.2229 1.9523 33.5971 0.365234 30.0407 0.365234V0.366941ZM30.1558 3.88578C32.7003 3.88578 35.3433 5.10253 37.6321 7.24592C39.6669 9.14016 40.9364 11.345 41.172 13.485C41.4149 15.7103 40.5765 17.8298 38.717 19.5653C37.0512 21.1182 35.1095 21.91 33.0089 21.91C30.4627 21.91 27.8251 20.6916 25.5309 18.5516C23.4979 16.6523 22.2284 14.4526 21.9928 12.3126C21.7517 10.0873 22.5864 7.96949 24.4477 6.23225C26.1136 4.67932 28.0552 3.88578 30.154 3.88578H30.1558Z" fill="#38C961"/>
</svg>
