<svg width="45" height="46" viewBox="0 0 45 46" fill="none" xmlns="http://www.w3.org/2000/svg">
<path d="M30.0407 1.36719C26.9757 1.36719 24.1189 2.52762 21.7644 4.72562C19.0903 7.22396 17.8665 10.2957 18.2245 13.579C18.493 16.0159 19.684 18.4733 21.5927 20.6713L8.34995 33.0436L5.95164 30.8029C4.78262 29.7057 3.8127 30.6152 2.64185 31.7108L1.50023 32.8303C0.327563 33.9208 -0.640531 34.7757 0.530315 35.8696L2.92498 38.112L1.04359 39.8697C0.764966 40.1282 0.543841 40.4357 0.392945 40.7744C0.24205 41.1131 0.164366 41.4764 0.164366 41.8433C0.164366 42.2102 0.24205 42.5734 0.392945 42.9121C0.543841 43.2508 0.764966 43.5583 1.04359 43.8169C2.21261 44.9073 4.09582 44.9073 5.26849 43.8169L26.046 24.4052C28.2963 25.7226 30.7403 26.4308 33.1222 26.4308C36.1854 26.4308 39.0477 25.2704 41.4003 23.0707C44.0763 20.5741 45.2983 17.5023 44.9384 14.219C44.6169 11.265 42.9383 8.29224 40.2587 5.79219C37.2229 2.95254 33.5971 1.36548 30.0407 1.36548V1.36719ZM30.1558 4.88603C32.7003 4.88603 35.3433 6.10278 37.632 8.24617C39.6669 10.1404 40.9364 12.3452 41.172 14.4852C41.4149 16.7105 40.5765 18.83 38.717 20.5655C37.0512 22.1185 35.1095 22.9103 33.0089 22.9103C30.4627 22.9103 27.8251 21.6918 25.5309 19.5519C23.4979 17.6525 22.2284 15.4528 21.9928 13.3128C21.7517 11.0875 22.5864 8.96973 24.4477 7.23249C26.1136 5.67956 28.0552 4.88603 30.154 4.88603H30.1558Z" fill="#DE7BE0"/>
</svg>
