<svg width="30" height="30" viewBox="0 0 30 30" fill="none" xmlns="http://www.w3.org/2000/svg">
<path fill-rule="evenodd" clip-rule="evenodd" d="M21.8168 12.2717C21.8168 13.5252 21.5699 14.7664 21.0902 15.9244C20.6105 17.0825 19.9074 18.1347 19.0211 19.0211C18.1347 19.9074 17.0825 20.6105 15.9244 21.0902C14.7664 21.5699 13.5252 21.8168 12.2717 21.8168C11.0182 21.8168 9.77699 21.5699 8.61893 21.0902C7.46086 20.6105 6.40862 19.9074 5.52228 19.0211C4.63593 18.1347 3.93285 17.0825 3.45316 15.9244C2.97347 14.7664 2.72658 13.5252 2.72658 12.2717C2.72658 9.74016 3.73223 7.31233 5.52228 5.52228C7.31233 3.73223 9.74016 2.72658 12.2717 2.72658C14.8032 2.72658 17.231 3.73223 19.0211 5.52228C20.8111 7.31233 21.8168 9.74016 21.8168 12.2717ZM19.9323 21.8604C17.4817 23.8182 14.3745 24.7634 11.2488 24.5018C8.12312 24.2402 5.21623 22.7917 3.12513 20.4539C1.03404 18.116 -0.0825266 15.0662 0.00475732 11.9308C0.0920412 8.79536 1.37655 5.81239 3.59447 3.59447C5.81239 1.37655 8.79536 0.0920412 11.9308 0.00475732C15.0662 -0.0825266 18.116 1.03404 20.4539 3.12513C22.7917 5.21623 24.2402 8.12312 24.5018 11.2488C24.7634 14.3745 23.8182 17.4817 21.8604 19.9323L29.6001 27.6693C29.7269 27.7961 29.8275 27.9466 29.8961 28.1122C29.9647 28.2779 30 28.4554 30 28.6347C30 28.814 29.9647 28.9915 29.8961 29.1572C29.8275 29.3228 29.7269 29.4733 29.6001 29.6001C29.4733 29.7269 29.3228 29.8275 29.1572 29.8961C28.9915 29.9647 28.814 30 28.6347 30C28.4554 30 28.2779 29.9647 28.1122 29.8961C27.9466 29.8275 27.7961 29.7269 27.6693 29.6001L19.935 21.8604H19.9323Z" fill="#8AF0A7"/>
</svg>
