<svg width="36" height="37" viewBox="0 0 36 37" fill="none" xmlns="http://www.w3.org/2000/svg">
<path d="M36 18.2066C36 8.27958 27.936 0.224579 18 0.224579C8.064 0.224579 0 8.27958 0 18.2066C0 23.6741 2.484 28.6016 6.372 31.9091C6.408 31.9451 6.444 31.9451 6.444 31.9811C6.768 32.2331 7.092 32.4851 7.452 32.7371C7.632 32.8451 7.776 32.9868 7.956 33.1308C10.9307 35.1477 14.4421 36.2254 18.036 36.2246C21.6299 36.2254 25.1413 35.1477 28.116 33.1308C28.296 33.0228 28.44 32.8811 28.62 32.7708C28.944 32.5211 29.304 32.2691 29.628 32.0171C29.664 31.9811 29.7 31.9811 29.7 31.9451C33.516 28.5993 36 23.6741 36 18.2066ZM18 33.9588C14.616 33.9588 11.52 32.8788 8.964 31.0811C9 30.7931 9.072 30.5073 9.144 30.2193C9.35851 29.4388 9.67312 28.6893 10.08 27.9896C10.476 27.3056 10.944 26.6936 11.52 26.1536C12.06 25.6136 12.708 25.1118 13.356 24.7158C14.04 24.3198 14.76 24.0318 15.552 23.8158C16.3502 23.6007 17.1734 23.4925 18 23.4941C20.454 23.4767 22.8178 24.418 24.588 26.1176C25.416 26.9456 26.064 27.9176 26.532 29.0313C26.784 29.6793 26.964 30.3633 27.072 31.0811C24.4151 32.9489 21.2477 33.9537 18 33.9588ZM12.492 17.3088C12.1748 16.5826 12.0153 15.7973 12.024 15.0048C12.024 14.2151 12.168 13.4231 12.492 12.7031C12.816 11.9831 13.248 11.3373 13.788 10.7973C14.328 10.2573 14.976 9.82758 15.696 9.50358C16.416 9.17958 17.208 9.03558 18 9.03558C18.828 9.03558 19.584 9.17958 20.304 9.50358C21.024 9.82758 21.672 10.2596 22.212 10.7973C22.752 11.3373 23.184 11.9853 23.508 12.7031C23.832 13.4231 23.976 14.2151 23.976 15.0048C23.976 15.8328 23.832 16.5888 23.508 17.3066C23.1953 18.0159 22.7562 18.6625 22.212 19.2146C21.6597 19.7579 21.0132 20.1963 20.304 20.5083C18.8164 21.1197 17.1476 21.1197 15.66 20.5083C14.9508 20.1963 14.3043 19.7579 13.752 19.2146C13.2071 18.6705 12.7784 18.0214 12.492 17.3066V17.3088ZM29.196 29.2473C29.196 29.1753 29.16 29.1393 29.16 29.0673C28.8059 27.941 28.2841 26.8745 27.612 25.9038C26.9393 24.9259 26.1126 24.0635 25.164 23.3501C24.4396 22.8051 23.6543 22.346 22.824 21.9821C23.2017 21.7329 23.5517 21.444 23.868 21.1203C24.4047 20.5905 24.8761 19.9982 25.272 19.3563C26.0693 18.0464 26.4811 16.5382 26.46 15.0048C26.4711 13.8697 26.2506 12.7443 25.812 11.6973C25.3789 10.6885 24.7556 9.77258 23.976 8.99958C23.1976 8.23465 22.2815 7.62391 21.276 7.19958C20.2273 6.76171 19.1004 6.542 17.964 6.55383C16.8275 6.54271 15.7006 6.76319 14.652 7.20183C13.6378 7.62525 12.7195 8.24894 11.952 9.03558C11.1871 9.81315 10.5763 10.7285 10.152 11.7333C9.71336 12.7803 9.49287 13.9057 9.504 15.0408C9.504 15.8328 9.612 16.5888 9.828 17.3066C10.044 18.0626 10.332 18.7466 10.728 19.3923C11.088 20.0403 11.592 20.6163 12.132 21.1563C12.456 21.4803 12.816 21.7661 13.212 22.0181C12.3791 22.3917 11.5936 22.863 10.872 23.4221C9.936 24.1421 9.108 25.0038 8.424 25.9398C7.74508 26.9065 7.22268 27.9741 6.876 29.1033C6.84 29.1753 6.84 29.2473 6.84 29.2833C3.996 26.4056 2.232 22.5221 2.232 18.2066C2.232 9.53958 9.324 2.45433 18 2.45433C26.676 2.45433 33.768 9.53958 33.768 18.2066C33.7633 22.3465 32.1195 26.3161 29.196 29.2473Z" fill="#8AF0A7"/>
</svg>
