<svg width="32" height="30" viewBox="0 0 32 30" fill="none" xmlns="http://www.w3.org/2000/svg">
<path d="M28.8 6.77542V3.57542C28.8 1.81062 27.3648 0.37542 25.6 0.37542H4.8C2.1536 0.37542 0 2.52902 0 5.17542V24.3754C0 27.897 2.8704 29.1754 4.8 29.1754H28.8C30.5648 29.1754 32 27.7402 32 25.9754V9.97542C32 8.21062 30.5648 6.77542 28.8 6.77542ZM4.8 3.57542H25.6V6.77542H4.8C4.38803 6.75699 3.99905 6.58037 3.71404 6.28233C3.42904 5.98429 3.26997 5.5878 3.26997 5.17542C3.26997 4.76304 3.42904 4.36655 3.71404 4.06851C3.99905 3.77047 4.38803 3.59385 4.8 3.57542ZM28.8 25.9754H4.8192C4.08 25.9562 3.2 25.6634 3.2 24.3754V9.67942C3.7024 9.86022 4.2352 9.97542 4.8 9.97542H28.8V25.9754Z" fill="#8AF0A7"/>
</svg>
