<svg width="45" height="46" viewBox="0 0 45 46" fill="none" xmlns="http://www.w3.org/2000/svg">
<g clip-path="url(#clip0_67_192)">
<path d="M42.5454 12.1592H33.8522V11.2592C33.8522 5.54418 28.5851 0.90918 22.0908 0.90918C15.5965 0.90918 10.3295 5.54418 10.3295 11.2592V12.1592H1.63627C0.504883 12.1592 -0.40918 12.9636 -0.40918 13.9592V44.1092C-0.40918 45.1048 0.504883 45.9092 1.63627 45.9092H42.5454C43.6768 45.9092 44.5908 45.1048 44.5908 44.1092V13.9592C44.5908 12.9636 43.6768 12.1592 42.5454 12.1592ZM14.9317 11.2592C14.9317 7.7773 18.1341 4.95918 22.0908 4.95918C26.0475 4.95918 29.2499 7.7773 29.2499 11.2592V12.1592H14.9317V11.2592ZM39.9885 41.8592H4.19309V16.2092H10.3295V21.1592C10.3295 21.4067 10.5596 21.6092 10.8408 21.6092H14.4204C14.7016 21.6092 14.9317 21.4067 14.9317 21.1592V16.2092H29.2499V21.1592C29.2499 21.4067 29.48 21.6092 29.7613 21.6092H33.3408C33.6221 21.6092 33.8522 21.4067 33.8522 21.1592V16.2092H39.9885V41.8592Z" fill="white"/>
</g>
<defs>
<clipPath id="clip0_67_192">
<rect width="45" height="45" fill="white" transform="translate(0 0.5)"/>
</clipPath>
</defs>
</svg>
